<?xml version="1.0" encoding="UTF-8" standalone="no"?>
<!-- Created with Inkscape (http://www.inkscape.org/) -->

<svg
   xmlns:dc="http://purl.org/dc/elements/1.1/"
   xmlns:cc="http://creativecommons.org/ns#"
   xmlns:rdf="http://www.w3.org/1999/02/22-rdf-syntax-ns#"
   xmlns:svg="http://www.w3.org/2000/svg"
   xmlns="http://www.w3.org/2000/svg"
   xmlns:sodipodi="http://sodipodi.sourceforge.net/DTD/sodipodi-0.dtd"
   xmlns:inkscape="http://www.inkscape.org/namespaces/inkscape"
   width="1000"
   height="1000"
   viewBox="0 0 1000 1000"
   version="1.1"
   id="svg8"
   inkscape:version="0.92.4 (5da689c313, 2019-01-14)"
   sodipodi:docname="section.svg">
  <defs
     id="defs2">
    <filter
       inkscape:collect="always"
       style="color-interpolation-filters:sRGB"
       id="filter947"
       x="-0.11964465"
       width="1.2392893"
       y="-0.064718887"
       height="1.1294378">
      <feGaussianBlur
         inkscape:collect="always"
         stdDeviation="0.26807286"
         id="feGaussianBlur949" />
    </filter>
  </defs>
  <sodipodi:namedview
     id="base"
     pagecolor="#ffffff"
     bordercolor="#666666"
     borderopacity="1.0"
     inkscape:pageopacity="0.0"
     inkscape:pageshadow="2"
     inkscape:zoom="0.49497475"
     inkscape:cx="838.4997"
     inkscape:cy="341.6237"
     inkscape:document-units="px"
     inkscape:current-layer="layer1"
     showgrid="false"
     units="px"
     inkscape:window-width="1920"
     inkscape:window-height="1001"
     inkscape:window-x="-9"
     inkscape:window-y="-9"
     inkscape:window-maximized="1" />
  <metadata
     id="metadata5">
    <rdf:RDF>
      <cc:Work
         rdf:about="">
        <dc:format>image/svg+xml</dc:format>
        <dc:type
           rdf:resource="http://purl.org/dc/dcmitype/StillImage" />
        <dc:title></dc:title>
      </cc:Work>
    </rdf:RDF>
  </metadata>
  <g
     inkscape:label="Capa 1"
     inkscape:groupmode="layer"
     id="layer1"
     transform="translate(0,-32.41665)">
    <g
       aria-label="ยง"
       style="font-style:normal;font-variant:normal;font-weight:bold;font-stretch:normal;font-size:12.07550907px;line-height:1.25;font-family:Georgia;-inkscape-font-specification:'Georgia, Bold';font-variant-ligatures:normal;font-variant-caps:normal;font-variant-numeric:normal;font-feature-settings:normal;text-align:start;letter-spacing:0px;word-spacing:0px;writing-mode:lr-tb;text-anchor:start;fill:#000000;fill-opacity:1;stroke:none;stroke-width:0.64156556;stroke-miterlimit:4;stroke-dasharray:none;stroke-opacity:1;filter:url(#filter947)"
       id="g897"
       transform="matrix(93.758259,0,0,93.758259,-7231.4952,-6390.7619)">
      <path
         d="m 85.214692,73.71015 q 0,0.625002 -0.418634,1.067221 -0.412737,0.442218 -1.108494,0.672171 0.601417,0.247643 0.908022,0.66038 0.306605,0.412737 0.306605,0.908022 0,0.795993 -0.742927,1.326655 -0.737031,0.530662 -2.022412,0.530662 -0.61321,0 -1.02005,-0.117925 -0.406841,-0.112029 -0.654484,-0.288916 -0.247642,-0.176888 -0.353774,-0.389152 -0.100236,-0.206369 -0.100236,-0.389153 0,-0.324293 0.188679,-0.530662 0.194576,-0.212264 0.560144,-0.212264 0.259434,0 0.448114,0.135613 0.18868,0.135614 0.318397,0.353775 0.123822,0.206368 0.206369,0.436322 0.08844,0.23585 0.182784,0.501181 0.02948,0.0059 0.08255,0.01179 0.05307,0.0059 0.08255,0.0059 0.554247,0 0.913918,-0.212265 0.365568,-0.212265 0.365568,-0.683965 0,-0.283019 -0.117925,-0.477595 -0.117925,-0.194577 -0.347879,-0.347879 -0.224057,-0.159199 -0.595521,-0.312501 -0.371463,-0.159198 -0.73703,-0.306605 -0.890333,-0.359671 -1.308966,-0.813681 -0.412738,-0.459907 -0.412738,-1.137976 0,-0.577832 0.336086,-1.002361 0.336086,-0.42453 1.191042,-0.737031 -0.66038,-0.271227 -0.961088,-0.683964 -0.300709,-0.418633 -0.300709,-0.943399 0,-0.772408 0.766512,-1.285382 0.766512,-0.512973 1.987035,-0.512973 0.583728,0 1.002361,0.112029 0.418634,0.112028 0.672172,0.294812 0.241746,0.170991 0.347879,0.383256 0.106132,0.206368 0.106132,0.395048 0,0.312501 -0.182784,0.530662 -0.176887,0.212265 -0.566039,0.212265 -0.271227,0 -0.454011,-0.135614 -0.176887,-0.135613 -0.312501,-0.353774 -0.112028,-0.176888 -0.218161,-0.459907 -0.100236,-0.288916 -0.170991,-0.477596 -0.04127,-0.01179 -0.08844,-0.01179 -0.04717,-0.0059 -0.07665,-0.0059 -0.554247,0 -0.913918,0.224057 -0.353774,0.218162 -0.353774,0.672172 0,0.294813 0.117924,0.483492 0.123822,0.18868 0.371464,0.347879 0.247642,0.159198 0.607313,0.306605 0.359671,0.147406 0.748823,0.306604 0.884437,0.353775 1.30307,0.80189 0.418634,0.448114 0.418634,1.149767 z m -1.503543,0.395049 q 0,-0.306605 -0.135613,-0.51887 -0.135614,-0.218161 -0.389153,-0.389152 -0.229953,-0.159199 -0.64269,-0.336086 -0.406841,-0.176887 -0.701653,-0.306605 -0.218161,0.18868 -0.359671,0.524766 -0.14151,0.33019 -0.14151,0.625002 0,0.312501 0.147406,0.536558 0.147406,0.218161 0.395048,0.383256 0.271228,0.176888 0.619106,0.33019 0.353775,0.147406 0.707549,0.300708 0.288916,-0.253538 0.395049,-0.542454 0.106132,-0.288916 0.106132,-0.607313 z"
         style="font-style:normal;font-variant:normal;font-weight:bold;font-stretch:normal;font-size:12.07550907px;font-family:Georgia;-inkscape-font-specification:'Georgia, Bold';font-variant-ligatures:normal;font-variant-caps:normal;font-variant-numeric:normal;font-feature-settings:normal;text-align:start;writing-mode:lr-tb;text-anchor:start;fill:#000000;fill-opacity:1;stroke:none;stroke-width:0.64156556;stroke-miterlimit:4;stroke-dasharray:none;stroke-opacity:1"
         id="path895"
         inkscape:connector-curvature="0" />
    </g>
    <g
       transform="matrix(93.758259,0,0,93.758259,-7237.4952,-6396.7619)"
       id="g893"
       style="font-style:normal;font-variant:normal;font-weight:bold;font-stretch:normal;font-size:12.07550907px;line-height:1.25;font-family:Georgia;-inkscape-font-specification:'Georgia, Bold';font-variant-ligatures:normal;font-variant-caps:normal;font-variant-numeric:normal;font-feature-settings:normal;text-align:start;letter-spacing:0px;word-spacing:0px;writing-mode:lr-tb;text-anchor:start;fill:#8bb7f0;fill-opacity:1;stroke:#4a76b2;stroke-width:0.64156556;stroke-miterlimit:4;stroke-dasharray:none;stroke-opacity:1"
       aria-label="ยง">
      <path
         inkscape:connector-curvature="0"
         id="path891"
         style="font-style:normal;font-variant:normal;font-weight:bold;font-stretch:normal;font-size:12.07550907px;font-family:Georgia;-inkscape-font-specification:'Georgia, Bold';font-variant-ligatures:normal;font-variant-caps:normal;font-variant-numeric:normal;font-feature-settings:normal;text-align:start;writing-mode:lr-tb;text-anchor:start;fill:#8bb7f0;fill-opacity:1;stroke:#4a76b2;stroke-width:0.64156556;stroke-miterlimit:4;stroke-dasharray:none;stroke-opacity:1"
         d="m 85.214692,73.71015 q 0,0.625002 -0.418634,1.067221 -0.412737,0.442218 -1.108494,0.672171 0.601417,0.247643 0.908022,0.66038 0.306605,0.412737 0.306605,0.908022 0,0.795993 -0.742927,1.326655 -0.737031,0.530662 -2.022412,0.530662 -0.61321,0 -1.02005,-0.117925 -0.406841,-0.112029 -0.654484,-0.288916 -0.247642,-0.176888 -0.353774,-0.389152 -0.100236,-0.206369 -0.100236,-0.389153 0,-0.324293 0.188679,-0.530662 0.194576,-0.212264 0.560144,-0.212264 0.259434,0 0.448114,0.135613 0.18868,0.135614 0.318397,0.353775 0.123822,0.206368 0.206369,0.436322 0.08844,0.23585 0.182784,0.501181 0.02948,0.0059 0.08255,0.01179 0.05307,0.0059 0.08255,0.0059 0.554247,0 0.913918,-0.212265 0.365568,-0.212265 0.365568,-0.683965 0,-0.283019 -0.117925,-0.477595 -0.117925,-0.194577 -0.347879,-0.347879 -0.224057,-0.159199 -0.595521,-0.312501 -0.371463,-0.159198 -0.73703,-0.306605 -0.890333,-0.359671 -1.308966,-0.813681 -0.412738,-0.459907 -0.412738,-1.137976 0,-0.577832 0.336086,-1.002361 0.336086,-0.42453 1.191042,-0.737031 -0.66038,-0.271227 -0.961088,-0.683964 -0.300709,-0.418633 -0.300709,-0.943399 0,-0.772408 0.766512,-1.285382 0.766512,-0.512973 1.987035,-0.512973 0.583728,0 1.002361,0.112029 0.418634,0.112028 0.672172,0.294812 0.241746,0.170991 0.347879,0.383256 0.106132,0.206368 0.106132,0.395048 0,0.312501 -0.182784,0.530662 -0.176887,0.212265 -0.566039,0.212265 -0.271227,0 -0.454011,-0.135614 -0.176887,-0.135613 -0.312501,-0.353774 -0.112028,-0.176888 -0.218161,-0.459907 -0.100236,-0.288916 -0.170991,-0.477596 -0.04127,-0.01179 -0.08844,-0.01179 -0.04717,-0.0059 -0.07665,-0.0059 -0.554247,0 -0.913918,0.224057 -0.353774,0.218162 -0.353774,0.672172 0,0.294813 0.117924,0.483492 0.123822,0.18868 0.371464,0.347879 0.247642,0.159198 0.607313,0.306605 0.359671,0.147406 0.748823,0.306604 0.884437,0.353775 1.30307,0.80189 0.418634,0.448114 0.418634,1.149767 z m -1.503543,0.395049 q 0,-0.306605 -0.135613,-0.51887 -0.135614,-0.218161 -0.389153,-0.389152 -0.229953,-0.159199 -0.64269,-0.336086 -0.406841,-0.176887 -0.701653,-0.306605 -0.218161,0.18868 -0.359671,0.524766 -0.14151,0.33019 -0.14151,0.625002 0,0.312501 0.147406,0.536558 0.147406,0.218161 0.395048,0.383256 0.271228,0.176888 0.619106,0.33019 0.353775,0.147406 0.707549,0.300708 0.288916,-0.253538 0.395049,-0.542454 0.106132,-0.288916 0.106132,-0.607313 z" />
    </g>
    <g
       transform="matrix(93.758259,0,0,93.758259,-7237.4953,-6396.7619)"
       id="g885"
       style="font-style:normal;font-variant:normal;font-weight:bold;font-stretch:normal;font-size:12.07550907px;line-height:1.25;font-family:Georgia;-inkscape-font-specification:'Georgia, Bold';font-variant-ligatures:normal;font-variant-caps:normal;font-variant-numeric:normal;font-feature-settings:normal;text-align:start;letter-spacing:0px;word-spacing:0px;writing-mode:lr-tb;text-anchor:start;fill:#8bf0a2;fill-opacity:0.31799999;stroke:#4a76b2;stroke-width:0.64156556;stroke-miterlimit:4;stroke-dasharray:none;stroke-opacity:1"
       aria-label="ยง" />
  </g>
</svg>
